<svg width="56" height="56" viewBox="0 0 56 56" fill="none" xmlns="http://www.w3.org/2000/svg">
<circle cx="28" cy="28" r="28" fill="#2F2E41"/>
<g clip-path="url(#clip0)">
<path d="M41.1248 21.3752C41.6432 21.3752 42.0624 21.7944 42.0624 22.3128V42.1248H43.0624C43.1855 42.1248 43.3074 42.1491 43.4212 42.1962C43.535 42.2433 43.6383 42.3124 43.7254 42.3994C43.8124 42.4865 43.8815 42.5898 43.9286 42.7036C43.9757 42.8174 44 42.9393 44 43.0624C44 43.1855 43.9757 43.3074 43.9286 43.4212C43.8815 43.535 43.8124 43.6383 43.7254 43.7254C43.6383 43.8124 43.535 43.8815 43.4212 43.9286C43.3074 43.9757 43.1855 44 43.0624 44H12.9376C12.8145 44 12.6926 43.9757 12.5788 43.9286C12.465 43.8815 12.3617 43.8124 12.2746 43.7254C12.1876 43.6383 12.1185 43.535 12.0714 43.4212C12.0243 43.3074 12 43.1855 12 43.0624C12 42.9393 12.0243 42.8174 12.0714 42.7036C12.1185 42.5898 12.1876 42.4865 12.2746 42.3994C12.3617 42.3124 12.465 42.2433 12.5788 42.1962C12.6926 42.1491 12.8145 42.1248 12.9376 42.1248H13.9376V31.688C13.9376 31.1704 14.3568 30.7504 14.8752 30.7504H18.624C19.1424 30.7504 19.5616 31.1704 19.5616 31.688V42.1256H21.4368V35.4376C21.4368 34.9208 21.856 34.5008 22.3744 34.5008H26.124C26.6424 34.5008 27.0616 34.9208 27.0616 35.4384V42.1264H28.9368V27.9368C28.9368 27.4192 29.356 26.9992 29.8744 26.9992H33.624C34.1424 26.9992 34.5616 27.4192 34.5616 27.9368V42.124H36.4368V22.3128C36.4368 21.7944 36.856 21.3752 37.3744 21.3752H41.1248ZM40.1872 23.2504H38.3128V42.1248H40.1872V23.2504V23.2504ZM32.6872 28.8744H30.8128V42.1248H32.6872V28.8752V28.8744ZM25.1872 36.3752H23.3128V42.1248H25.1872V36.376V36.3752ZM17.688 32.624H15.8128V42.124H17.6872V32.6248L17.688 32.624ZM39.2496 12C39.9953 12.0008 40.7103 12.2975 41.2376 12.8248C41.7649 13.3521 42.0616 14.0671 42.0624 14.8128C42.0613 15.5584 41.7646 16.2732 41.2373 16.8003C40.71 17.3274 39.9952 17.624 39.2496 17.6248C38.6736 17.6248 38.1384 17.4512 37.692 17.1528L34.4336 19.5968C34.5648 20.018 34.5952 20.464 34.5224 20.8991C34.4496 21.3342 34.2757 21.7461 34.0145 22.1016C33.7533 22.4571 33.4123 22.7463 33.0189 22.9458C32.6255 23.1454 32.1907 23.2497 31.7496 23.2504C31.3303 23.2506 30.9164 23.1566 30.5384 22.9752L26.7872 26.7256C26.9632 27.0928 27.0624 27.504 27.0624 27.9376C27.0613 28.6831 26.7647 29.3977 26.2376 29.9248C25.7105 30.4519 24.9959 30.7485 24.2504 30.7496C23.852 30.7489 23.4583 30.6638 23.0953 30.4997C22.7322 30.3356 22.4081 30.0964 22.1444 29.7978C21.8807 29.4992 21.6833 29.1481 21.5653 28.7676C21.4473 28.387 21.4114 27.9858 21.46 27.5904L18.7 26.2112C18.177 26.7175 17.4775 27.0003 16.7496 27C16.004 26.9989 15.2892 26.7022 14.7621 26.1749C14.235 25.6476 13.9384 24.9328 13.9376 24.1872C13.9387 23.4417 14.2353 22.7271 14.7624 22.2C15.2895 21.6729 16.0041 21.3763 16.7496 21.3752C17.148 21.3759 17.5417 21.461 17.9047 21.6251C18.2678 21.7892 18.5919 22.0284 18.8556 22.327C19.1193 22.6256 19.3167 22.9767 19.4347 23.3572C19.5527 23.7378 19.5886 24.139 19.54 24.5344L22.3 25.9144C22.7113 25.5159 23.2348 25.2529 23.8001 25.161C24.3653 25.069 24.9452 25.1524 25.4616 25.4L29.2128 21.6496C29.0313 21.2714 28.9373 20.8571 28.9376 20.4376C28.9384 19.692 29.235 18.9772 29.7621 18.4499C30.2892 17.9226 31.004 17.6259 31.7496 17.6248C32.3256 17.6248 32.8616 17.7992 33.308 18.0968L36.5664 15.6536C36.4352 15.2324 36.4048 14.7864 36.4776 14.3513C36.5504 13.9162 36.7243 13.5043 36.9855 13.1488C37.2467 12.7933 37.5877 12.5041 37.9811 12.3046C38.3745 12.105 38.8093 12.0007 39.2504 12H39.2496ZM24.2496 27C23.7328 27 23.3128 27.4208 23.3128 27.9376C23.3128 28.4544 23.7328 28.8752 24.2496 28.8752C24.7672 28.8752 25.1872 28.4544 25.1872 27.9376C25.1872 27.4208 24.7672 27 24.2496 27ZM16.7504 23.2496C16.2328 23.2496 15.8128 23.6704 15.8128 24.1872C15.8128 24.704 16.2328 25.1248 16.7496 25.1248C17.2672 25.1248 17.6872 24.704 17.6872 24.1872C17.6872 23.6704 17.2672 23.2504 16.7504 23.2504V23.2496ZM31.7504 19.5C31.2328 19.5 30.8128 19.9208 30.8128 20.4376C30.8128 20.9544 31.2328 21.3752 31.7504 21.3752C32.2672 21.3752 32.6872 20.9544 32.6872 20.4376C32.6872 19.9208 32.2672 19.5 31.7496 19.5H31.7504ZM39.2504 13.8752C38.7328 13.8752 38.3128 14.296 38.3128 14.8128C38.3128 15.3296 38.7328 15.7496 39.2504 15.7496C39.7672 15.7496 40.1872 15.3296 40.1872 14.8128C40.1872 14.296 39.7672 13.8752 39.2496 13.8752H39.2504Z" fill="#00D37F"/>
</g>
<defs>
<clipPath id="clip0">
<rect width="32" height="32" fill="white" transform="translate(12 12)"/>
</clipPath>
</defs>
</svg>
