<svg width="56" height="56" viewBox="0 0 56 56" fill="none" xmlns="http://www.w3.org/2000/svg">
<circle cx="28" cy="28" r="28" fill="#2F2E41"/>
<g clip-path="url(#clip0)">
<path d="M45.8978 13.7658C45.7882 13.6991 45.6637 13.6607 45.5356 13.6543C45.4075 13.6478 45.2797 13.6733 45.1639 13.7286L39.1283 16.5715C38.0828 17.0638 37.1859 17.8237 36.5286 18.7742C35.8713 19.7247 35.4769 20.8321 35.3853 21.9841L35.2301 23.9126L32.103 29.1067V26.8892C32.103 26.8813 32.0983 26.8758 32.0983 26.8679C32.0973 26.7915 32.0851 26.7158 32.0619 26.643L30.6068 22.2778L33.5779 16.3371C33.6419 16.2073 33.6684 16.0623 33.6546 15.9183C33.6407 15.7743 33.587 15.6369 33.4995 15.5217L28.8287 9.29366C28.753 9.20179 28.6579 9.1278 28.5503 9.07701C28.4426 9.02622 28.3251 8.99988 28.206 8.99988C28.087 8.99988 27.9695 9.02622 27.8618 9.07701C27.7542 9.1278 27.6591 9.20179 27.5834 9.29366L22.9118 15.5233C22.825 15.639 22.7722 15.7765 22.7592 15.9205C22.7462 16.0646 22.7735 16.2093 22.8382 16.3387L25.8093 22.2786L24.3542 26.6438C24.3307 26.7165 24.3182 26.7923 24.317 26.8687V29.9965L19.4664 22.6348C19.4609 22.6269 19.4506 22.6214 19.4459 22.6142C19.3991 22.5494 19.3428 22.492 19.2788 22.444C19.263 22.4337 19.2503 22.4203 19.2345 22.4108C19.2187 22.4005 19.2171 22.395 19.2068 22.3894L16.3528 20.7388L15.1677 18.9409L13.4553 16.3387C13.3597 16.1938 13.2184 16.085 13.0539 16.0296C12.8894 15.9742 12.711 15.9755 12.5473 16.0331L9.51757 17.0963C9.40631 17.1359 9.30551 17.2002 9.2228 17.2845C9.14009 17.3688 9.07764 17.4708 9.04019 17.5827C9.00273 17.6947 8.99125 17.8138 9.00662 17.9308C9.02198 18.0479 9.06378 18.16 9.12886 18.2585L11.2703 21.5099L12.4515 23.307L12.841 26.5821C12.843 26.5928 12.8457 26.6034 12.8489 26.6137C12.8521 26.6296 12.856 26.6462 12.8608 26.662C12.8784 26.7444 12.9094 26.8233 12.9526 26.8956C12.9582 26.9035 12.9582 26.9138 12.9637 26.9217C12.9692 26.9296 24.541 44.469 24.5972 44.5165C24.8754 45.2471 25.3691 45.8758 26.0129 46.3193C26.6566 46.7629 27.42 47.0002 28.2017 47C28.5184 47 28.835 46.9604 29.1438 46.8852C29.6405 46.7634 30.1081 46.5443 30.5196 46.2405C30.931 45.9368 31.2782 45.5545 31.5409 45.1158L41.8959 27.9382L43.5307 26.9035C44.3892 26.3573 45.1099 25.62 45.6366 24.7494C46.3055 23.6415 46.6306 22.3601 46.5707 21.0673L46.2675 14.4015C46.263 14.2733 46.2269 14.1482 46.1624 14.0373C46.0979 13.9264 46.007 13.8331 45.8978 13.7658V13.7658ZM40.2596 27.639L39.0547 29.6395L35.0536 27.2265L36.2601 25.226L40.2596 27.639V27.639ZM25.8742 39.4364V27.6675H30.545V31.6891L25.8742 39.4364V39.4364ZM27.2145 22.9966H29.2055L30.2426 26.1102H26.1766L27.2137 22.9966H27.2145ZM28.2096 17.546C28.0032 17.546 27.8053 17.464 27.6593 17.3181C27.5134 17.1721 27.4314 16.9742 27.4314 16.7678C27.4314 16.5614 27.5134 16.3635 27.6593 16.2175C27.8053 16.0716 28.0032 15.9896 28.2096 15.9896C28.416 15.9896 28.6139 16.0716 28.7599 16.2175C28.9058 16.3635 28.9878 16.5614 28.9878 16.7678C28.9878 16.9742 28.9058 17.1721 28.7599 17.3181C28.6139 17.464 28.416 17.546 28.2096 17.546V17.546ZM28.2096 11.0591L31.97 16.0711L29.2863 21.4386H28.9878V18.9607C29.5073 18.7771 29.9451 18.4158 30.2239 17.9406C30.5027 17.4654 30.6046 16.907 30.5114 16.364C30.4183 15.821 30.1362 15.3284 29.715 14.9732C29.2938 14.6181 28.7606 14.4233 28.2096 14.4233C27.6587 14.4233 27.1255 14.6181 26.7043 14.9732C26.283 15.3284 26.0009 15.821 25.9078 16.364C25.8147 16.907 25.9165 17.4654 26.1953 17.9406C26.4741 18.4158 26.912 18.7771 27.4314 18.9607V21.4386H27.1337L24.45 16.0711L28.2104 11.0591H28.2096ZM17.3361 23.1059L17.1065 23.2563L14.2399 25.146L13.9762 22.9396C13.9617 22.8197 13.9194 22.7047 13.8527 22.604L12.9969 21.304L14.2961 20.4475L15.1519 21.7474C15.2185 21.8482 15.3077 21.9322 15.4123 21.9928L17.3353 23.1059H17.3361ZM12.4895 17.702L13.4395 19.1444L12.1396 20.001L10.9719 18.234L12.4895 17.702ZM16.6449 25.4247L18.5909 24.139L24.317 32.8252V41.3166L14.6943 26.7103L16.6449 25.4247ZM30.2102 44.3067C30.0517 44.5693 29.8431 44.7982 29.5962 44.9801C29.3493 45.1621 29.069 45.2937 28.7713 45.3674C28.4736 45.441 28.1643 45.4553 27.861 45.4094C27.5578 45.3636 27.2665 45.2584 27.0039 45.1C26.7413 44.9415 26.5125 44.7329 26.3305 44.486C26.1485 44.2392 26.0169 43.9588 25.9432 43.6611C25.8696 43.3634 25.8553 43.0541 25.9012 42.7508C25.9471 42.4476 26.0522 42.1563 26.2107 41.8937L32.0888 32.1443H32.1022V32.123L34.2492 28.5612L36.2498 29.7693L38.2527 30.9727L30.2094 44.3067H30.2102ZM44.3074 23.9419C43.9059 24.6054 43.3564 25.1671 42.7019 25.583L41.3188 26.4594L39.061 25.1001L36.8032 23.7408L36.9314 22.106C37.0014 21.2278 37.3021 20.3836 37.8031 19.6589C38.3041 18.9342 38.9877 18.3547 39.7846 17.979L44.7673 15.6341L44.8663 17.8033C44.7883 17.7951 44.7096 17.7988 44.6327 17.8144L42.747 18.2815C41.8868 18.4915 41.1026 18.9384 40.4835 19.5714C39.8643 20.2045 39.4349 20.9983 39.2439 21.863C39.1987 22.0644 39.2355 22.2756 39.346 22.4499C39.4565 22.6243 39.6318 22.7476 39.8333 22.7928C40.0347 22.8379 40.2459 22.8012 40.4202 22.6906C40.5946 22.5801 40.7179 22.4048 40.7631 22.2034C40.8921 21.6219 41.1811 21.0882 41.5976 20.6625C42.0141 20.2367 42.5414 19.936 43.1199 19.7943L44.9383 19.3431L45.0199 21.1338C45.0654 22.12 44.8174 23.0975 44.3074 23.9427V23.9419Z" fill="#00D37F"/>
</g>
<defs>
<clipPath id="clip0">
<rect width="38" height="38" fill="white" transform="translate(9 9)"/>
</clipPath>
</defs>
</svg>
