<svg width="56" height="56" viewBox="0 0 56 56" fill="none" xmlns="http://www.w3.org/2000/svg">
<circle cx="28" cy="28" r="28" fill="#2F2E41"/>
<path d="M27.9728 11C37.3313 11 44.9464 18.6143 44.9464 27.9728C44.9464 37.3313 37.3321 44.9464 27.9728 44.9464C18.6143 44.9464 11 37.3321 11 27.9728C11 18.6143 18.6143 11 27.9728 11ZM34.607 41.2421C30.4735 39.2004 25.4729 39.2004 21.3394 41.2421C23.3964 42.2811 25.6683 42.8231 27.9728 42.8249C30.2775 42.8232 32.5498 42.2812 34.607 41.2421V41.2421ZM29.0344 13.1751V16.304H26.912V13.176C23.9727 13.3832 21.1626 14.4655 18.8438 16.2836L21.2221 18.661L19.7218 20.1613L17.267 17.7065C15.1224 19.9387 13.7317 22.7872 13.2907 25.8512H17.3648V27.9736H13.1216C13.1216 32.9079 15.55 37.2752 19.2645 39.9773C24.549 36.8204 31.3974 36.8204 36.681 39.9773C40.3955 37.2752 42.8249 32.9079 42.8249 27.9728H38.5816V25.8512H42.6557C42.2147 22.7872 40.8241 19.9387 38.6794 17.7065L36.2246 20.1613L34.7243 18.661L37.1026 16.2836C34.7839 14.4652 31.9739 13.3826 29.0344 13.1751V13.1751ZM26.963 20.2233C27.2452 19.3444 28.7012 19.3444 28.9834 20.2233C29.5232 21.9046 32.2168 30.3851 32.2168 32.2168C32.2157 33.342 31.7682 34.4208 30.9725 35.2163C30.1768 36.0118 29.098 36.4591 27.9728 36.46C26.8478 36.4589 25.7692 36.0115 24.9736 35.216C24.1781 34.4205 23.7307 33.3419 23.7296 32.2168C23.7296 30.3851 26.4241 21.9046 26.963 20.2233V20.2233ZM27.9728 24.1053C26.9247 27.5452 25.8512 31.349 25.8512 32.2168C25.8521 32.7793 26.0759 33.3184 26.4736 33.7161C26.8713 34.1137 27.4104 34.3376 27.9728 34.3384C28.5354 34.3378 29.0747 34.1141 29.4726 33.7164C29.8704 33.3186 30.0943 32.7794 30.0952 32.2168C30.0952 31.3498 29.0217 27.5452 27.9728 24.1053V24.1053Z" fill="#00D37F"/>
</svg>
